<mxfile host="app.diagrams.net" modified="2024-01-12T00:46:08.775Z" agent="Mozilla/5.0 (Windows NT 10.0; Win64; x64) AppleWebKit/537.36 (KHTML, like Gecko) Chrome/120.0.0.0 Safari/537.36" etag="400oREPSyBkFTDv-viHa" version="22.1.18" type="device">
  <diagram name="Страница — 1" id="rJ5PVlrNLRR_NxMO6PGV">
    <mxGraphModel dx="1148" dy="1881" grid="1" gridSize="10" guides="1" tooltips="1" connect="1" arrows="1" fold="1" page="1" pageScale="1" pageWidth="827" pageHeight="1169" math="0" shadow="0">
      <root>
        <mxCell id="0" />
        <mxCell id="1" parent="0" />
        <mxCell id="q5DOCeiqnCD4ZDvmlbiz-1" value="Начало" style="ellipse;whiteSpace=wrap;html=1;" vertex="1" parent="1">
          <mxGeometry x="370" y="-30" width="120" height="80" as="geometry" />
        </mxCell>
        <mxCell id="q5DOCeiqnCD4ZDvmlbiz-2" value="Основное окно&amp;nbsp;" style="ellipse;whiteSpace=wrap;html=1;" vertex="1" parent="1">
          <mxGeometry x="370" y="80" width="120" height="80" as="geometry" />
        </mxCell>
        <mxCell id="q5DOCeiqnCD4ZDvmlbiz-3" value="Дерево диалога" style="ellipse;whiteSpace=wrap;html=1;" vertex="1" parent="1">
          <mxGeometry x="370" y="230" width="120" height="80" as="geometry" />
        </mxCell>
        <mxCell id="q5DOCeiqnCD4ZDvmlbiz-4" value="Сцена" style="ellipse;whiteSpace=wrap;html=1;" vertex="1" parent="1">
          <mxGeometry x="370" y="400" width="120" height="80" as="geometry" />
        </mxCell>
        <mxCell id="q5DOCeiqnCD4ZDvmlbiz-6" value="Изменение/редактирование сцены" style="ellipse;whiteSpace=wrap;html=1;" vertex="1" parent="1">
          <mxGeometry x="210" y="520" width="120" height="80" as="geometry" />
        </mxCell>
        <mxCell id="q5DOCeiqnCD4ZDvmlbiz-7" value="Шаблон вопроса" style="ellipse;whiteSpace=wrap;html=1;" vertex="1" parent="1">
          <mxGeometry x="530" y="520" width="120" height="80" as="geometry" />
        </mxCell>
        <mxCell id="q5DOCeiqnCD4ZDvmlbiz-8" value="Шаблон ответа" style="ellipse;whiteSpace=wrap;html=1;" vertex="1" parent="1">
          <mxGeometry x="530" y="700" width="120" height="80" as="geometry" />
        </mxCell>
        <mxCell id="q5DOCeiqnCD4ZDvmlbiz-9" value="" style="endArrow=classic;html=1;rounded=0;exitX=0.5;exitY=1;exitDx=0;exitDy=0;entryX=0.5;entryY=0;entryDx=0;entryDy=0;" edge="1" parent="1" source="q5DOCeiqnCD4ZDvmlbiz-1" target="q5DOCeiqnCD4ZDvmlbiz-2">
          <mxGeometry width="50" height="50" relative="1" as="geometry">
            <mxPoint x="390" y="340" as="sourcePoint" />
            <mxPoint x="440" y="290" as="targetPoint" />
          </mxGeometry>
        </mxCell>
        <mxCell id="q5DOCeiqnCD4ZDvmlbiz-10" value="" style="endArrow=classic;html=1;rounded=0;exitX=0.738;exitY=0.935;exitDx=0;exitDy=0;entryX=0.746;entryY=0.072;entryDx=0;entryDy=0;exitPerimeter=0;entryPerimeter=0;" edge="1" parent="1" source="q5DOCeiqnCD4ZDvmlbiz-2" target="q5DOCeiqnCD4ZDvmlbiz-3">
          <mxGeometry width="50" height="50" relative="1" as="geometry">
            <mxPoint x="390" y="340" as="sourcePoint" />
            <mxPoint x="440" y="290" as="targetPoint" />
          </mxGeometry>
        </mxCell>
        <mxCell id="q5DOCeiqnCD4ZDvmlbiz-15" value="Показать&lt;br&gt;&amp;nbsp;дерево" style="edgeLabel;html=1;align=center;verticalAlign=middle;resizable=0;points=[];" vertex="1" connectable="0" parent="q5DOCeiqnCD4ZDvmlbiz-10">
          <mxGeometry x="-0.016" y="1" relative="1" as="geometry">
            <mxPoint as="offset" />
          </mxGeometry>
        </mxCell>
        <mxCell id="q5DOCeiqnCD4ZDvmlbiz-11" value="" style="endArrow=classic;html=1;rounded=0;exitX=0.738;exitY=0.943;exitDx=0;exitDy=0;entryX=0.746;entryY=0.044;entryDx=0;entryDy=0;exitPerimeter=0;entryPerimeter=0;" edge="1" parent="1" source="q5DOCeiqnCD4ZDvmlbiz-3" target="q5DOCeiqnCD4ZDvmlbiz-4">
          <mxGeometry width="50" height="50" relative="1" as="geometry">
            <mxPoint x="390" y="340" as="sourcePoint" />
            <mxPoint x="440" y="290" as="targetPoint" />
          </mxGeometry>
        </mxCell>
        <mxCell id="q5DOCeiqnCD4ZDvmlbiz-16" value="Выбор сцены или &lt;br&gt;ввод ее имени" style="edgeLabel;html=1;align=center;verticalAlign=middle;resizable=0;points=[];" vertex="1" connectable="0" parent="q5DOCeiqnCD4ZDvmlbiz-11">
          <mxGeometry x="-0.0133" y="-1" relative="1" as="geometry">
            <mxPoint y="-24" as="offset" />
          </mxGeometry>
        </mxCell>
        <mxCell id="q5DOCeiqnCD4ZDvmlbiz-12" value="" style="endArrow=classic;html=1;rounded=0;exitX=0;exitY=0.5;exitDx=0;exitDy=0;entryX=0.5;entryY=0;entryDx=0;entryDy=0;" edge="1" parent="1" source="q5DOCeiqnCD4ZDvmlbiz-4" target="q5DOCeiqnCD4ZDvmlbiz-6">
          <mxGeometry width="50" height="50" relative="1" as="geometry">
            <mxPoint x="390" y="340" as="sourcePoint" />
            <mxPoint x="440" y="290" as="targetPoint" />
          </mxGeometry>
        </mxCell>
        <mxCell id="q5DOCeiqnCD4ZDvmlbiz-20" value="Добавить/изменить&lt;br&gt;&amp;nbsp;сцену" style="edgeLabel;html=1;align=center;verticalAlign=middle;resizable=0;points=[];" vertex="1" connectable="0" parent="q5DOCeiqnCD4ZDvmlbiz-12">
          <mxGeometry x="0.1947" y="-1" relative="1" as="geometry">
            <mxPoint x="1" y="-5" as="offset" />
          </mxGeometry>
        </mxCell>
        <mxCell id="q5DOCeiqnCD4ZDvmlbiz-13" value="" style="endArrow=classic;html=1;rounded=0;exitX=1;exitY=0.5;exitDx=0;exitDy=0;entryX=0.5;entryY=0;entryDx=0;entryDy=0;" edge="1" parent="1" source="q5DOCeiqnCD4ZDvmlbiz-4" target="q5DOCeiqnCD4ZDvmlbiz-7">
          <mxGeometry width="50" height="50" relative="1" as="geometry">
            <mxPoint x="390" y="340" as="sourcePoint" />
            <mxPoint x="440" y="290" as="targetPoint" />
          </mxGeometry>
        </mxCell>
        <mxCell id="q5DOCeiqnCD4ZDvmlbiz-19" value="Добавить/изменить &lt;br&gt;шаблон вопроса" style="edgeLabel;html=1;align=center;verticalAlign=middle;resizable=0;points=[];" vertex="1" connectable="0" parent="q5DOCeiqnCD4ZDvmlbiz-13">
          <mxGeometry x="-0.1435" relative="1" as="geometry">
            <mxPoint x="17" y="4" as="offset" />
          </mxGeometry>
        </mxCell>
        <mxCell id="q5DOCeiqnCD4ZDvmlbiz-14" value="" style="endArrow=classic;html=1;rounded=0;exitX=0.738;exitY=0.947;exitDx=0;exitDy=0;entryX=0.738;entryY=0.085;entryDx=0;entryDy=0;exitPerimeter=0;entryPerimeter=0;" edge="1" parent="1" source="q5DOCeiqnCD4ZDvmlbiz-7" target="q5DOCeiqnCD4ZDvmlbiz-8">
          <mxGeometry width="50" height="50" relative="1" as="geometry">
            <mxPoint x="390" y="340" as="sourcePoint" />
            <mxPoint x="460" y="520" as="targetPoint" />
          </mxGeometry>
        </mxCell>
        <mxCell id="q5DOCeiqnCD4ZDvmlbiz-27" value="Добавить/изменить &lt;br&gt;шаблон ответа" style="edgeLabel;html=1;align=center;verticalAlign=middle;resizable=0;points=[];" vertex="1" connectable="0" parent="q5DOCeiqnCD4ZDvmlbiz-14">
          <mxGeometry x="-0.0667" y="-3" relative="1" as="geometry">
            <mxPoint x="13" y="-17" as="offset" />
          </mxGeometry>
        </mxCell>
        <mxCell id="q5DOCeiqnCD4ZDvmlbiz-17" value="Предлагаемые шаблоны вопросов" style="ellipse;whiteSpace=wrap;html=1;" vertex="1" parent="1">
          <mxGeometry x="827" y="520" width="120" height="80" as="geometry" />
        </mxCell>
        <mxCell id="q5DOCeiqnCD4ZDvmlbiz-18" value="Предлагаемые шаблоны ответов" style="ellipse;whiteSpace=wrap;html=1;" vertex="1" parent="1">
          <mxGeometry x="827" y="700" width="120" height="80" as="geometry" />
        </mxCell>
        <mxCell id="q5DOCeiqnCD4ZDvmlbiz-22" value="" style="endArrow=classic;html=1;rounded=0;entryX=0;entryY=0;entryDx=0;entryDy=0;exitX=1;exitY=0;exitDx=0;exitDy=0;" edge="1" parent="1" source="q5DOCeiqnCD4ZDvmlbiz-7" target="q5DOCeiqnCD4ZDvmlbiz-17">
          <mxGeometry width="50" height="50" relative="1" as="geometry">
            <mxPoint x="610" y="580" as="sourcePoint" />
            <mxPoint x="660" y="530" as="targetPoint" />
          </mxGeometry>
        </mxCell>
        <mxCell id="q5DOCeiqnCD4ZDvmlbiz-23" value="Выбор из &lt;br&gt;предложенных шаблонов" style="edgeLabel;html=1;align=center;verticalAlign=middle;resizable=0;points=[];" vertex="1" connectable="0" parent="q5DOCeiqnCD4ZDvmlbiz-22">
          <mxGeometry x="-0.5667" y="4" relative="1" as="geometry">
            <mxPoint x="44" y="4" as="offset" />
          </mxGeometry>
        </mxCell>
        <mxCell id="q5DOCeiqnCD4ZDvmlbiz-24" value="" style="endArrow=classic;html=1;rounded=0;exitX=1;exitY=0.5;exitDx=0;exitDy=0;entryX=0;entryY=0.5;entryDx=0;entryDy=0;" edge="1" parent="1" source="q5DOCeiqnCD4ZDvmlbiz-8" target="q5DOCeiqnCD4ZDvmlbiz-18">
          <mxGeometry width="50" height="50" relative="1" as="geometry">
            <mxPoint x="490" y="410" as="sourcePoint" />
            <mxPoint x="540" y="360" as="targetPoint" />
          </mxGeometry>
        </mxCell>
        <mxCell id="q5DOCeiqnCD4ZDvmlbiz-26" value="Выбор из &lt;br&gt;предложенных шаблонов" style="edgeLabel;html=1;align=center;verticalAlign=middle;resizable=0;points=[];" vertex="1" connectable="0" parent="q5DOCeiqnCD4ZDvmlbiz-24">
          <mxGeometry x="-0.2897" y="3" relative="1" as="geometry">
            <mxPoint x="17" y="3" as="offset" />
          </mxGeometry>
        </mxCell>
        <mxCell id="q5DOCeiqnCD4ZDvmlbiz-28" value="" style="endArrow=classic;html=1;rounded=0;exitX=0;exitY=0;exitDx=0;exitDy=0;entryX=1;entryY=1;entryDx=0;entryDy=0;" edge="1" parent="1" source="q5DOCeiqnCD4ZDvmlbiz-7" target="q5DOCeiqnCD4ZDvmlbiz-4">
          <mxGeometry width="50" height="50" relative="1" as="geometry">
            <mxPoint x="530" y="410" as="sourcePoint" />
            <mxPoint x="580" y="360" as="targetPoint" />
          </mxGeometry>
        </mxCell>
        <mxCell id="q5DOCeiqnCD4ZDvmlbiz-29" value="Отмена" style="edgeLabel;html=1;align=center;verticalAlign=middle;resizable=0;points=[];" vertex="1" connectable="0" parent="q5DOCeiqnCD4ZDvmlbiz-28">
          <mxGeometry x="0.3982" y="3" relative="1" as="geometry">
            <mxPoint y="16" as="offset" />
          </mxGeometry>
        </mxCell>
        <mxCell id="q5DOCeiqnCD4ZDvmlbiz-30" value="" style="endArrow=none;html=1;rounded=0;exitX=0.236;exitY=0.947;exitDx=0;exitDy=0;exitPerimeter=0;entryX=0.252;entryY=0.038;entryDx=0;entryDy=0;entryPerimeter=0;startArrow=classic;startFill=1;endFill=0;" edge="1" parent="1" source="q5DOCeiqnCD4ZDvmlbiz-7" target="q5DOCeiqnCD4ZDvmlbiz-8">
          <mxGeometry width="50" height="50" relative="1" as="geometry">
            <mxPoint x="530" y="410" as="sourcePoint" />
            <mxPoint x="580" y="360" as="targetPoint" />
          </mxGeometry>
        </mxCell>
        <mxCell id="q5DOCeiqnCD4ZDvmlbiz-37" value="Назад" style="edgeLabel;html=1;align=center;verticalAlign=middle;resizable=0;points=[];" vertex="1" connectable="0" parent="q5DOCeiqnCD4ZDvmlbiz-30">
          <mxGeometry x="0.2806" y="-1" relative="1" as="geometry">
            <mxPoint as="offset" />
          </mxGeometry>
        </mxCell>
        <mxCell id="q5DOCeiqnCD4ZDvmlbiz-31" value="" style="endArrow=classic;html=1;rounded=0;exitX=0;exitY=1;exitDx=0;exitDy=0;entryX=1;entryY=1;entryDx=0;entryDy=0;" edge="1" parent="1" source="q5DOCeiqnCD4ZDvmlbiz-18" target="q5DOCeiqnCD4ZDvmlbiz-8">
          <mxGeometry width="50" height="50" relative="1" as="geometry">
            <mxPoint x="530" y="670" as="sourcePoint" />
            <mxPoint x="580" y="620" as="targetPoint" />
          </mxGeometry>
        </mxCell>
        <mxCell id="q5DOCeiqnCD4ZDvmlbiz-32" value="Отмена/успешное изменение/добавление" style="edgeLabel;html=1;align=center;verticalAlign=middle;resizable=0;points=[];" vertex="1" connectable="0" parent="q5DOCeiqnCD4ZDvmlbiz-31">
          <mxGeometry x="0.4206" y="-1" relative="1" as="geometry">
            <mxPoint x="36" y="13" as="offset" />
          </mxGeometry>
        </mxCell>
        <mxCell id="q5DOCeiqnCD4ZDvmlbiz-33" value="" style="endArrow=classic;html=1;rounded=0;entryX=0.252;entryY=0.947;entryDx=0;entryDy=0;entryPerimeter=0;exitX=0.26;exitY=0.096;exitDx=0;exitDy=0;exitPerimeter=0;" edge="1" parent="1" source="q5DOCeiqnCD4ZDvmlbiz-3" target="q5DOCeiqnCD4ZDvmlbiz-2">
          <mxGeometry width="50" height="50" relative="1" as="geometry">
            <mxPoint x="405" y="280" as="sourcePoint" />
            <mxPoint x="580" y="420" as="targetPoint" />
          </mxGeometry>
        </mxCell>
        <mxCell id="q5DOCeiqnCD4ZDvmlbiz-34" value="Назад" style="edgeLabel;html=1;align=center;verticalAlign=middle;resizable=0;points=[];" vertex="1" connectable="0" parent="q5DOCeiqnCD4ZDvmlbiz-33">
          <mxGeometry x="-0.0734" y="3" relative="1" as="geometry">
            <mxPoint as="offset" />
          </mxGeometry>
        </mxCell>
        <mxCell id="q5DOCeiqnCD4ZDvmlbiz-35" value="" style="endArrow=classic;html=1;rounded=0;exitX=0.221;exitY=0.115;exitDx=0;exitDy=0;exitPerimeter=0;entryX=0.221;entryY=0.919;entryDx=0;entryDy=0;entryPerimeter=0;" edge="1" parent="1" source="q5DOCeiqnCD4ZDvmlbiz-4" target="q5DOCeiqnCD4ZDvmlbiz-3">
          <mxGeometry width="50" height="50" relative="1" as="geometry">
            <mxPoint x="530" y="470" as="sourcePoint" />
            <mxPoint x="580" y="420" as="targetPoint" />
          </mxGeometry>
        </mxCell>
        <mxCell id="q5DOCeiqnCD4ZDvmlbiz-36" value="Назад/&lt;br&gt;удаление сцены" style="edgeLabel;html=1;align=center;verticalAlign=middle;resizable=0;points=[];" vertex="1" connectable="0" parent="q5DOCeiqnCD4ZDvmlbiz-35">
          <mxGeometry x="-0.4502" y="1" relative="1" as="geometry">
            <mxPoint as="offset" />
          </mxGeometry>
        </mxCell>
        <mxCell id="q5DOCeiqnCD4ZDvmlbiz-38" value="" style="endArrow=classic;html=1;rounded=0;exitX=0;exitY=1;exitDx=0;exitDy=0;entryX=1;entryY=1;entryDx=0;entryDy=0;" edge="1" parent="1" source="q5DOCeiqnCD4ZDvmlbiz-17" target="q5DOCeiqnCD4ZDvmlbiz-7">
          <mxGeometry width="50" height="50" relative="1" as="geometry">
            <mxPoint x="530" y="470" as="sourcePoint" />
            <mxPoint x="580" y="420" as="targetPoint" />
          </mxGeometry>
        </mxCell>
        <mxCell id="q5DOCeiqnCD4ZDvmlbiz-39" value="Отмена/успешное &lt;br&gt;изменение/добавление" style="edgeLabel;html=1;align=center;verticalAlign=middle;resizable=0;points=[];" vertex="1" connectable="0" parent="q5DOCeiqnCD4ZDvmlbiz-38">
          <mxGeometry x="0.4761" y="1" relative="1" as="geometry">
            <mxPoint x="42" y="-5" as="offset" />
          </mxGeometry>
        </mxCell>
        <mxCell id="q5DOCeiqnCD4ZDvmlbiz-40" value="" style="endArrow=classic;html=1;rounded=0;exitX=0.95;exitY=0.311;exitDx=0;exitDy=0;entryX=0.299;entryY=0.964;entryDx=0;entryDy=0;entryPerimeter=0;exitPerimeter=0;" edge="1" parent="1" source="q5DOCeiqnCD4ZDvmlbiz-6" target="q5DOCeiqnCD4ZDvmlbiz-4">
          <mxGeometry width="50" height="50" relative="1" as="geometry">
            <mxPoint x="530" y="470" as="sourcePoint" />
            <mxPoint x="580" y="420" as="targetPoint" />
          </mxGeometry>
        </mxCell>
        <mxCell id="q5DOCeiqnCD4ZDvmlbiz-41" value="Отмена/успешное &lt;br&gt;изменение/добавление" style="edgeLabel;html=1;align=center;verticalAlign=middle;resizable=0;points=[];" vertex="1" connectable="0" parent="q5DOCeiqnCD4ZDvmlbiz-40">
          <mxGeometry x="-0.3353" y="-2" relative="1" as="geometry">
            <mxPoint x="26" y="-12" as="offset" />
          </mxGeometry>
        </mxCell>
      </root>
    </mxGraphModel>
  </diagram>
</mxfile>
